<mxfile host="app.diagrams.net" modified="2022-08-17T14:25:36.272Z" agent="5.0 (Windows NT 10.0; Win64; x64) AppleWebKit/537.36 (KHTML, like Gecko) Chrome/104.0.5112.81 Safari/537.36" etag="aFrFLXog0Zs6N1JSYRiF" version="20.2.4" type="github">
  <diagram id="PVjxOnMlJtP6MrPdwmVl" name="Page-1">
    <mxGraphModel dx="1422" dy="758" grid="1" gridSize="10" guides="1" tooltips="1" connect="1" arrows="1" fold="1" page="1" pageScale="1" pageWidth="827" pageHeight="1169" math="0" shadow="0">
      <root>
        <mxCell id="0" />
        <mxCell id="1" parent="0" />
        <mxCell id="z3CZRV8mNwq9e_6Lc-xi-21" value="" style="edgeStyle=orthogonalEdgeStyle;rounded=0;orthogonalLoop=1;jettySize=auto;html=1;fontSize=14;fontFamily=Tahoma;" edge="1" parent="1" source="z3CZRV8mNwq9e_6Lc-xi-1" target="z3CZRV8mNwq9e_6Lc-xi-3">
          <mxGeometry relative="1" as="geometry" />
        </mxCell>
        <mxCell id="z3CZRV8mNwq9e_6Lc-xi-1" value="Client" style="whiteSpace=wrap;html=1;aspect=fixed;fontSize=14;fontFamily=Tahoma;" vertex="1" parent="1">
          <mxGeometry x="30" y="230" width="70" height="70" as="geometry" />
        </mxCell>
        <mxCell id="z3CZRV8mNwq9e_6Lc-xi-3" value="Load Balancer" style="rhombus;whiteSpace=wrap;html=1;fontSize=14;fontFamily=Tahoma;" vertex="1" parent="1">
          <mxGeometry x="170" y="215" width="100" height="100" as="geometry" />
        </mxCell>
        <mxCell id="z3CZRV8mNwq9e_6Lc-xi-23" value="" style="edgeStyle=orthogonalEdgeStyle;rounded=0;orthogonalLoop=1;jettySize=auto;html=1;fontSize=14;fontFamily=Tahoma;" edge="1" parent="1" source="z3CZRV8mNwq9e_6Lc-xi-4" target="z3CZRV8mNwq9e_6Lc-xi-11">
          <mxGeometry relative="1" as="geometry" />
        </mxCell>
        <mxCell id="z3CZRV8mNwq9e_6Lc-xi-4" value="App Server (read)" style="rounded=1;whiteSpace=wrap;html=1;fontSize=14;fontFamily=Tahoma;" vertex="1" parent="1">
          <mxGeometry x="290" y="170" width="120" height="60" as="geometry" />
        </mxCell>
        <mxCell id="z3CZRV8mNwq9e_6Lc-xi-28" style="edgeStyle=orthogonalEdgeStyle;rounded=0;orthogonalLoop=1;jettySize=auto;html=1;entryX=0.031;entryY=0.3;entryDx=0;entryDy=0;entryPerimeter=0;fontSize=14;fontFamily=Tahoma;" edge="1" parent="1" source="z3CZRV8mNwq9e_6Lc-xi-5" target="z3CZRV8mNwq9e_6Lc-xi-13">
          <mxGeometry relative="1" as="geometry">
            <Array as="points">
              <mxPoint x="350" y="424" />
            </Array>
          </mxGeometry>
        </mxCell>
        <mxCell id="z3CZRV8mNwq9e_6Lc-xi-29" value="upload" style="edgeLabel;html=1;align=center;verticalAlign=middle;resizable=0;points=[];fontSize=14;fontFamily=Tahoma;" vertex="1" connectable="0" parent="z3CZRV8mNwq9e_6Lc-xi-28">
          <mxGeometry x="0.2513" y="-3" relative="1" as="geometry">
            <mxPoint y="-7" as="offset" />
          </mxGeometry>
        </mxCell>
        <mxCell id="z3CZRV8mNwq9e_6Lc-xi-5" value="App Server (read)" style="rounded=1;whiteSpace=wrap;html=1;fontSize=14;fontFamily=Tahoma;" vertex="1" parent="1">
          <mxGeometry x="290" y="310" width="120" height="60" as="geometry" />
        </mxCell>
        <mxCell id="z3CZRV8mNwq9e_6Lc-xi-6" value="" style="edgeStyle=elbowEdgeStyle;elbow=horizontal;endArrow=classic;html=1;rounded=0;entryX=0;entryY=0.5;entryDx=0;entryDy=0;exitX=0.5;exitY=1;exitDx=0;exitDy=0;fontSize=14;fontFamily=Tahoma;" edge="1" parent="1" source="z3CZRV8mNwq9e_6Lc-xi-3" target="z3CZRV8mNwq9e_6Lc-xi-5">
          <mxGeometry width="50" height="50" relative="1" as="geometry">
            <mxPoint x="200" y="460" as="sourcePoint" />
            <mxPoint x="250" y="410" as="targetPoint" />
            <Array as="points">
              <mxPoint x="220" y="350" />
            </Array>
          </mxGeometry>
        </mxCell>
        <mxCell id="z3CZRV8mNwq9e_6Lc-xi-9" value="" style="edgeStyle=segmentEdgeStyle;endArrow=classic;html=1;rounded=0;entryX=0;entryY=0.5;entryDx=0;entryDy=0;exitX=0.5;exitY=0;exitDx=0;exitDy=0;fontSize=14;fontFamily=Tahoma;" edge="1" parent="1" source="z3CZRV8mNwq9e_6Lc-xi-3" target="z3CZRV8mNwq9e_6Lc-xi-4">
          <mxGeometry width="50" height="50" relative="1" as="geometry">
            <mxPoint x="220" y="210" as="sourcePoint" />
            <mxPoint x="230" y="150" as="targetPoint" />
            <Array as="points">
              <mxPoint x="220" y="200" />
            </Array>
          </mxGeometry>
        </mxCell>
        <mxCell id="z3CZRV8mNwq9e_6Lc-xi-25" value="" style="edgeStyle=orthogonalEdgeStyle;rounded=0;orthogonalLoop=1;jettySize=auto;html=1;fontSize=14;fontFamily=Tahoma;" edge="1" parent="1" source="z3CZRV8mNwq9e_6Lc-xi-11" target="z3CZRV8mNwq9e_6Lc-xi-12">
          <mxGeometry relative="1" as="geometry">
            <Array as="points">
              <mxPoint x="630" y="240" />
              <mxPoint x="630" y="240" />
            </Array>
          </mxGeometry>
        </mxCell>
        <mxCell id="z3CZRV8mNwq9e_6Lc-xi-11" value="Cache &lt;br style=&quot;font-size: 14px;&quot;&gt;(Redit)" style="ellipse;whiteSpace=wrap;html=1;fontSize=14;fontFamily=Tahoma;" vertex="1" parent="1">
          <mxGeometry x="480" y="215" width="120" height="80" as="geometry" />
        </mxCell>
        <mxCell id="z3CZRV8mNwq9e_6Lc-xi-17" value="" style="edgeStyle=orthogonalEdgeStyle;rounded=0;orthogonalLoop=1;jettySize=auto;html=1;fontSize=14;fontFamily=Tahoma;" edge="1" parent="1" source="z3CZRV8mNwq9e_6Lc-xi-12" target="z3CZRV8mNwq9e_6Lc-xi-13">
          <mxGeometry relative="1" as="geometry" />
        </mxCell>
        <mxCell id="z3CZRV8mNwq9e_6Lc-xi-12" value="Metadata DB" style="shape=cylinder3;whiteSpace=wrap;html=1;boundedLbl=1;backgroundOutline=1;size=15;fontSize=14;fontFamily=Tahoma;" vertex="1" parent="1">
          <mxGeometry x="650" y="150" width="130" height="210" as="geometry" />
        </mxCell>
        <mxCell id="z3CZRV8mNwq9e_6Lc-xi-13" value="Object Storage&lt;br style=&quot;font-size: 14px;&quot;&gt;(S3)" style="ellipse;whiteSpace=wrap;html=1;fontSize=14;fontFamily=Tahoma;" vertex="1" parent="1">
          <mxGeometry x="650" y="400" width="130" height="80" as="geometry" />
        </mxCell>
        <mxCell id="z3CZRV8mNwq9e_6Lc-xi-16" value="" style="endArrow=classic;html=1;rounded=0;entryX=0.5;entryY=0;entryDx=0;entryDy=0;exitX=0.5;exitY=1;exitDx=0;exitDy=0;exitPerimeter=0;fontSize=14;fontFamily=Tahoma;" edge="1" parent="1" source="z3CZRV8mNwq9e_6Lc-xi-12" target="z3CZRV8mNwq9e_6Lc-xi-13">
          <mxGeometry width="50" height="50" relative="1" as="geometry">
            <mxPoint x="510" y="430" as="sourcePoint" />
            <mxPoint x="560" y="380" as="targetPoint" />
          </mxGeometry>
        </mxCell>
        <mxCell id="z3CZRV8mNwq9e_6Lc-xi-18" value="file path" style="text;html=1;align=center;verticalAlign=middle;resizable=0;points=[];autosize=1;strokeColor=none;fillColor=none;fontSize=14;fontFamily=Tahoma;" vertex="1" parent="1">
          <mxGeometry x="710" y="370" width="70" height="30" as="geometry" />
        </mxCell>
        <mxCell id="z3CZRV8mNwq9e_6Lc-xi-19" value="" style="endArrow=classic;html=1;rounded=0;exitX=0.5;exitY=1;exitDx=0;exitDy=0;entryX=0;entryY=0.5;entryDx=0;entryDy=0;fontSize=14;fontFamily=Tahoma;" edge="1" parent="1" source="z3CZRV8mNwq9e_6Lc-xi-1" target="z3CZRV8mNwq9e_6Lc-xi-31">
          <mxGeometry width="50" height="50" relative="1" as="geometry">
            <mxPoint x="150" y="420" as="sourcePoint" />
            <mxPoint x="200" y="370" as="targetPoint" />
            <Array as="points">
              <mxPoint x="65" y="440" />
            </Array>
          </mxGeometry>
        </mxCell>
        <mxCell id="z3CZRV8mNwq9e_6Lc-xi-22" value="" style="edgeStyle=segmentEdgeStyle;endArrow=classic;html=1;rounded=0;entryX=0.315;entryY=1.005;entryDx=0;entryDy=0;entryPerimeter=0;exitX=1;exitY=0.5;exitDx=0;exitDy=0;fontSize=14;fontFamily=Tahoma;" edge="1" parent="1" source="z3CZRV8mNwq9e_6Lc-xi-5" target="z3CZRV8mNwq9e_6Lc-xi-12">
          <mxGeometry width="50" height="50" relative="1" as="geometry">
            <mxPoint x="500" y="410" as="sourcePoint" />
            <mxPoint x="550" y="360" as="targetPoint" />
            <Array as="points">
              <mxPoint x="440" y="340" />
              <mxPoint x="440" y="380" />
              <mxPoint x="691" y="380" />
            </Array>
          </mxGeometry>
        </mxCell>
        <mxCell id="z3CZRV8mNwq9e_6Lc-xi-26" value="" style="endArrow=classic;html=1;rounded=0;entryX=0.992;entryY=0.563;entryDx=0;entryDy=0;entryPerimeter=0;fontSize=14;fontFamily=Tahoma;" edge="1" parent="1" target="z3CZRV8mNwq9e_6Lc-xi-11">
          <mxGeometry width="50" height="50" relative="1" as="geometry">
            <mxPoint x="650" y="260" as="sourcePoint" />
            <mxPoint x="640" y="280" as="targetPoint" />
          </mxGeometry>
        </mxCell>
        <mxCell id="z3CZRV8mNwq9e_6Lc-xi-32" style="edgeStyle=orthogonalEdgeStyle;rounded=0;orthogonalLoop=1;jettySize=auto;html=1;entryX=0;entryY=0.5;entryDx=0;entryDy=0;fontSize=14;fontFamily=Tahoma;" edge="1" parent="1" source="z3CZRV8mNwq9e_6Lc-xi-31" target="z3CZRV8mNwq9e_6Lc-xi-13">
          <mxGeometry relative="1" as="geometry" />
        </mxCell>
        <mxCell id="z3CZRV8mNwq9e_6Lc-xi-31" value="Cdn" style="rounded=1;whiteSpace=wrap;html=1;fontSize=14;fontFamily=Tahoma;" vertex="1" parent="1">
          <mxGeometry x="180" y="410" width="120" height="60" as="geometry" />
        </mxCell>
      </root>
    </mxGraphModel>
  </diagram>
</mxfile>
